<svg xmlns="http://www.w3.org/2000/svg" viewBox="0 0 512 512" role="img" aria-label="wig cat">
  <defs>
    <linearGradient id="bg" x1="0" y1="0" x2="1" y2="1">
      <stop offset="0%" stop-color="#8ed0ff"/>
      <stop offset="100%" stop-color="#1f7bff"/>
    </linearGradient>
    <linearGradient id="fur" x1="0" y1="0" x2="0" y2="1">
      <stop offset="0%" stop-color="#eff8ff"/>
      <stop offset="100%" stop-color="#d3e9ff"/>
    </linearGradient>
    <linearGradient id="wig" x1="0" y1="0" x2="0" y2="1">
      <stop offset="0%" stop-color="#fcfdff"/>
      <stop offset="100%" stop-color="#c8d1db"/>
    </linearGradient>
  </defs>
  <rect width="512" height="512" fill="url(#bg)"/>
  <ellipse cx="256" cy="292" rx="150" ry="120" fill="url(#fur)"/>
  <path d="M108 270 Q130 178 210 162 Q256 154 302 162 Q382 178 404 270 Q358 222 310 208 Q256 194 202 208 Q154 222 108 270 Z" fill="#d9ecff"/>
  <ellipse cx="200" cy="288" rx="24" ry="14" fill="#d6b95a"/>
  <ellipse cx="312" cy="288" rx="24" ry="14" fill="#d6b95a"/>
  <ellipse cx="200" cy="288" rx="12" ry="12" fill="#7dd651"/>
  <ellipse cx="312" cy="288" rx="12" ry="12" fill="#7dd651"/>
  <path d="M240 336 Q256 348 272 336 Q256 326 240 336 Z" fill="#9ac6f7"/>
  <path d="M146 142 Q164 80 256 72 Q348 80 366 142 Q374 184 350 214 Q320 250 256 252 Q192 250 162 214 Q138 184 146 142 Z" fill="url(#wig)"/>
  <path d="M166 138 Q192 110 256 106 Q320 110 346 138" stroke="#adb7c2" stroke-width="6" fill="none" stroke-linecap="round"/>
  <path d="M152 180 Q188 140 256 134 Q324 140 360 180" stroke="#b8c1cb" stroke-width="7" fill="none" stroke-linecap="round"/>
  <path d="M138 224 Q178 180 256 174 Q334 180 374 224" stroke="#c5ccd4" stroke-width="8" fill="none" stroke-linecap="round"/>
</svg>
